HIERARCHY
ROOT joint_Root
{
	OFFSET 0.0 0.0 0.0
	CHANNELS 6 Xposition Yposition Zposition Zrotation Xrotation Yrotation 
	JOINT Hips
	{
		OFFSET 4.5925 91.4895 -427.239
		CHANNELS 6 Xposition Yposition Zposition Zrotation Xrotation Yrotation 
		JOINT Spine
		{
			OFFSET 15.7357 0.0 0.0
			CHANNELS 6 Xposition Yposition Zposition Zrotation Xrotation Yrotation 
			JOINT Chest
			{
				OFFSET 8.98455 -0.406207 0.0
				CHANNELS 6 Xposition Yposition Zposition Zrotation Xrotation Yrotation 
				JOINT Neck
				{
					OFFSET 16.3773 0.0 0.0
					CHANNELS 6 Xposition Yposition Zposition Zrotation Xrotation Yrotation 
					JOINT Head
					{
						OFFSET 6.45672 0.0 0.0
						CHANNELS 6 Xposition Yposition Zposition Zrotation Xrotation Yrotation 
						End Site
						{
							OFFSET 0.0 0.0 0.0
						}
					}
				}
				JOINT Shoulder_L
				{
					OFFSET 12.9942 -0.242716 4.98039
					CHANNELS 6 Xposition Yposition Zposition Zrotation Xrotation Yrotation 
					JOINT UpperArm_L
					{
						OFFSET 5.34809 0.0 0.0
						CHANNELS 6 Xposition Yposition Zposition Zrotation Xrotation Yrotation 
						JOINT LowerArm_L
						{
							OFFSET 24.3286 1.87007e-05 0.0
							CHANNELS 6 Xposition Yposition Zposition Zrotation Xrotation Yrotation 
							JOINT Hand_L
							{
								OFFSET 22.2916 0.0 0.0
								CHANNELS 6 Xposition Yposition Zposition Zrotation Xrotation Yrotation 
								End Site
								{
									OFFSET 0.0 0.0 0.0
								}
							}
						}
					}
				}
				JOINT Shoulder_R
				{
					OFFSET 12.9945 -0.242716 -4.98039
					CHANNELS 6 Xposition Yposition Zposition Zrotation Xrotation Yrotation 
					JOINT UpperArm_R
					{
						OFFSET -5.34813 0.0 0.0
						CHANNELS 6 Xposition Yposition Zposition Zrotation Xrotation Yrotation 
						JOINT LowerArm_R
						{
							OFFSET -24.3289 0.000322201 0.0
							CHANNELS 6 Xposition Yposition Zposition Zrotation Xrotation Yrotation 
							JOINT Hand_R
							{
								OFFSET -22.2915 -0.000108084 0.0
								CHANNELS 6 Xposition Yposition Zposition Zrotation Xrotation Yrotation 
								End Site
								{
									OFFSET 0.0 0.0 0.0
								}
							}
						}
					}
				}
			}
		}
		JOINT UpperLeg_L
		{
			OFFSET -2.19248 -6.46944 0.0
			CHANNELS 6 Xposition Yposition Zposition Zrotation Xrotation Yrotation 
			JOINT LowerLeg_L
			{
				OFFSET 39.0811 0.0 -1.23785e-05
				CHANNELS 6 Xposition Yposition Zposition Zrotation Xrotation Yrotation 
				JOINT Foot_L
				{
					OFFSET 40.9854 0.0 -1.26872e-05
					CHANNELS 6 Xposition Yposition Zposition Zrotation Xrotation Yrotation 
					JOINT Toes_L
					{
						OFFSET 11.7543 0.0 0.0
						CHANNELS 6 Xposition Yposition Zposition Zrotation Xrotation Yrotation 
						End Site
						{
							OFFSET 0.0 0.0 0.0
						}
					}
				}
			}
		}
		JOINT UpperLeg_R
		{
			OFFSET -2.19251 6.46944 0.0
			CHANNELS 6 Xposition Yposition Zposition Zrotation Xrotation Yrotation 
			JOINT LowerLeg_R
			{
				OFFSET -39.0811 -0.00228153 -0.0401928
				CHANNELS 6 Xposition Yposition Zposition Zrotation Xrotation Yrotation 
				JOINT Foot_R
				{
					OFFSET -40.9854 0.0 0.0
					CHANNELS 6 Xposition Yposition Zposition Zrotation Xrotation Yrotation 
					JOINT Toes_R
					{
						OFFSET -11.7543 0.0 0.0
						CHANNELS 6 Xposition Yposition Zposition Zrotation Xrotation Yrotation 
						End Site
						{
							OFFSET 0.0 0.0 0.0
						}
					}
				}
			}
		}
	}
}
MOTION
Frames:	9
Frame Time:	0.0333333
0.000000 0.000000 0.000000 0.000000 0.000000 -0.000000 -1.683060 78.160000 -6.550090 89.928000 1.061610 6.642820 15.735700 0.000005 -0.000001 88.260000 79.378700 -87.138100 8.984550 -0.406207 -0.000000 13.474000 -0.582334 2.312950 16.377300 -0.000001 -0.000001 -4.225440 -4.880550 2.573230 6.456720 -0.000001 -0.000000 -5.021990 -5.791170 9.715520 12.994200 -0.242716 4.980390 -90.826500 3.506790 -76.728500 5.348090 -0.000007 -0.000001 -65.717300 8.739130 -23.817000 24.328600 0.000019 0.000005 4.918800 13.050600 -20.869200 22.291600 -0.000001 0.000005 8.319540 5.205100 2.559070 12.994500 -0.242716 -4.980390 88.747100 8.669320 -81.744100 -5.348130 -0.000001 -0.000004 -62.511100 18.351800 -10.608800 -24.328900 0.000322 -0.000009 -6.515610 -12.550600 -27.722500 -22.291500 -0.000108 -0.000004 23.721900 5.502150 -6.628970 -2.192480 -6.469440 -0.000000 -175.274000 -9.282140 -30.090200 39.081100 -0.000007 -0.000012 -0.719262 0.219316 73.043900 40.985400 -0.000006 -0.000013 1.465960 5.818530 -86.338200 11.754300 -0.000000 0.000003 -0.000636 -0.004866 -16.753600 -2.192510 6.469440 -0.000001 178.414000 14.694500 151.096000 -39.081100 -0.002282 -0.040193 0.151139 -0.043529 73.619200 -40.985400 0.000008 0.000006 6.718110 0.967060 -88.060300 -11.754300 -0.000006 -0.000006 -1.211620 -1.536430 -16.170200
0.000000 0.000000 0.000000 0.000000 0.000000 -0.000000 -1.033480 80.188000 -5.505650 90.956000 0.597052 7.102760 15.735700 0.000005 -0.000001 88.994100 80.081300 -86.845100 8.984550 -0.406207 -0.000000 12.077000 -0.264424 4.324990 16.377300 -0.000001 -0.000001 -2.296580 -4.787980 3.014410 6.456720 -0.000001 -0.000000 -3.993110 -5.409340 7.116240 12.994200 -0.242716 4.980390 -90.667400 2.572630 -75.447400 5.348090 -0.000007 -0.000001 -57.840700 1.990640 -25.734000 24.328600 0.000019 0.000005 4.628020 14.947300 -17.419800 22.291600 -0.000001 0.000005 9.206680 5.185390 3.075470 12.994500 -0.242716 -4.980390 88.630600 8.339110 -80.640000 -5.348130 -0.000001 -0.000004 -62.400500 15.712100 -8.439770 -24.328900 0.000322 -0.000009 -5.438650 -12.852600 -23.166800 -22.291500 -0.000108 -0.000004 24.105700 5.488640 -6.082440 -2.192480 -6.469440 -0.000000 -176.619000 -10.180100 -25.845600 39.081100 -0.000007 -0.000012 -0.639461 0.261650 67.748300 40.985400 -0.000006 -0.000013 1.859530 5.854920 -84.828600 11.754300 -0.000000 0.000003 -0.000556 -0.004353 -16.736000 -2.192510 6.469440 -0.000001 176.467000 14.302500 154.897000 -39.081100 -0.002282 -0.040193 0.129640 -0.049004 68.826200 -40.985400 0.000008 0.000006 6.221560 1.882900 -86.468700 -11.754300 -0.000006 -0.000006 -1.180100 -1.493390 -16.206300
0.000000 0.000000 0.000000 0.000000 0.000000 -0.000000 -0.355235 83.084600 -4.400480 92.221000 0.543296 7.523030 15.735700 0.000005 -0.000001 90.543900 80.927400 -87.441500 8.984550 -0.406207 -0.000000 10.379400 0.241956 6.178930 16.377300 -0.000001 -0.000001 -0.271289 -4.989640 2.968580 6.456720 -0.000001 -0.000000 -3.386990 -5.604400 5.037500 12.994200 -0.242716 4.980390 -90.228000 0.819447 -74.440400 5.348090 -0.000007 -0.000001 -53.601300 -14.480000 -30.179300 24.328600 0.000019 0.000005 2.948540 12.644800 -13.236800 22.291600 -0.000001 0.000005 9.664480 5.090360 5.328640 12.994500 -0.242716 -4.980390 88.438400 8.118590 -79.073500 -5.348130 -0.000001 -0.000004 -61.083600 12.123100 -4.681890 -24.328900 0.000322 -0.000009 -5.151020 -13.216800 -21.514000 -22.291500 -0.000108 -0.000004 22.817800 5.487360 -6.031920 -2.192480 -6.469440 -0.000000 -178.225000 -10.963500 -20.205400 39.081100 -0.000007 -0.000012 -0.491860 0.290289 59.452600 40.985400 -0.000006 -0.000013 2.220850 6.251050 -81.792400 11.754300 -0.000000 0.000003 -0.000423 -0.003463 -16.705000 -2.192510 6.469440 -0.000001 174.145000 14.665000 160.087000 -39.081100 -0.002282 -0.040193 0.105004 -0.055697 61.319000 -40.985400 0.000008 0.000006 5.787920 3.311110 -83.601300 -11.754300 -0.000006 -0.000006 -1.071510 -1.347630 -16.298300
0.000000 0.000000 0.000000 0.000000 0.000000 -0.000000 0.193973 86.103300 -3.217140 93.158600 0.213989 7.859170 15.735700 0.000005 -0.000001 93.175200 81.791800 -89.305000 8.984550 -0.406207 -0.000000 8.606060 0.933589 7.663010 16.377300 -0.000001 -0.000001 1.650050 -5.333850 3.069850 6.456720 -0.000001 -0.000000 -3.082380 -5.984640 3.738790 12.994200 -0.242716 4.980390 -89.627100 -1.333830 -74.375700 5.348090 -0.000007 -0.000001 -45.804100 -29.265700 -35.537300 24.328600 0.000019 0.000005 1.986490 9.426710 -11.956900 22.291600 -0.000001 0.000005 10.063000 5.078880 5.593790 12.994500 -0.242716 -4.980390 88.282000 7.680030 -77.349800 -5.348130 -0.000001 -0.000004 -59.033300 9.898050 -1.065820 -24.328900 0.000322 -0.000009 -4.767330 -12.870700 -20.521400 -22.291500 -0.000108 -0.000004 22.031500 5.487380 -6.033300 -2.192480 -6.469440 -0.000000 -179.256000 -12.048100 -13.810600 39.081100 -0.000007 -0.000012 -0.311156 0.265501 49.527500 40.985400 -0.000006 -0.000013 2.317610 6.968800 -77.942700 11.754300 -0.000000 0.000003 -0.000219 -0.001998 -16.652700 -2.192510 6.469440 -0.000001 172.287000 15.160300 165.862000 -39.081100 -0.002282 -0.040193 0.078117 -0.057760 52.354200 -40.985400 0.000008 0.000006 5.551470 5.002590 -79.918900 -11.754300 -0.000006 -0.000006 -0.848383 -1.053060 -16.589300
0.000000 0.000000 0.000000 0.000000 0.000000 -0.000000 0.590346 88.607300 -2.273790 93.219000 -0.332355 7.271550 15.735700 0.000005 -0.000001 95.078400 82.843600 -90.591600 8.984550 -0.406207 -0.000000 6.459920 1.212600 8.895190 16.377300 -0.000001 -0.000001 3.382440 -5.764440 3.622360 6.456720 -0.000001 -0.000000 -3.244930 -6.284110 3.266060 12.994200 -0.242716 4.980390 -88.711200 -4.853830 -75.106000 5.348090 -0.000007 -0.000001 -32.362500 -41.359100 -35.824300 24.328600 0.000019 0.000005 -0.101789 -0.388839 -13.949500 22.291600 -0.000001 0.000005 9.690940 5.167220 3.524230 12.994500 -0.242716 -4.980390 88.279800 6.953940 -76.068500 -5.348130 -0.000001 -0.000004 -57.031100 8.430150 1.727720 -24.328900 0.000322 -0.000009 -4.050910 -11.542700 -19.485000 -22.291500 -0.000108 -0.000004 21.785600 5.480010 -5.748370 -2.192480 -6.469440 -0.000000 -179.357000 -13.451600 -8.739470 39.081100 -0.000007 -0.000012 -0.151518 0.181342 39.880400 40.985400 -0.000006 -0.000013 2.271990 8.117150 -73.968800 11.754300 -0.000000 0.000003 -0.000113 -0.001144 -16.621300 -2.192510 6.469440 -0.000001 171.779000 15.991100 170.286000 -39.081100 -0.002282 -0.040193 0.055618 -0.055132 43.516800 -40.985400 0.000008 0.000006 5.433540 6.815640 -75.833500 -11.754300 -0.000006 -0.000006 -0.666988 -0.819919 -17.049800
0.000000 0.000000 0.000000 0.000000 0.000000 -0.000000 0.748989 90.390100 -1.704880 92.788400 -1.723960 5.977050 15.735700 0.000005 -0.000001 96.546000 83.847700 -91.714700 8.984550 -0.406207 -0.000000 4.424430 1.260230 9.603160 16.377300 -0.000001 -0.000001 4.471230 -5.639940 4.062830 6.456720 -0.000001 -0.000000 -3.517400 -6.665700 3.974130 12.994200 -0.242716 4.980390 -87.052100 -10.780600 -74.612400 5.348090 -0.000007 -0.000001 -16.258300 -51.849500 -29.924300 24.328600 0.000019 0.000005 -4.901420 -14.223300 -19.215800 22.291600 -0.000001 0.000005 9.663680 5.264270 1.055500 12.994500 -0.242716 -4.980390 88.341100 6.478100 -75.602800 -5.348130 -0.000001 -0.000004 -54.795900 7.041490 3.568830 -24.328900 0.000322 -0.000009 -3.704390 -10.812200 -19.036300 -22.291500 -0.000108 -0.000004 21.346900 5.461180 -5.042000 -2.192480 -6.469440 -0.000000 -178.727000 -16.304900 -5.223320 39.081100 -0.000007 -0.000012 -0.052061 0.084408 31.665500 40.985400 -0.000006 -0.000013 2.180970 10.057500 -70.871200 11.754300 -0.000000 0.000003 0.001547 0.033111 -15.231900 -2.192510 6.469440 -0.000001 172.236000 16.891800 172.992000 -39.081100 -0.002282 -0.040193 0.037738 -0.047728 35.820500 -40.985400 0.000008 0.000006 5.546680 9.150920 -72.218400 -11.754300 -0.000006 -0.000006 -0.601129 -0.737720 -17.267600
0.000000 0.000000 0.000000 0.000000 0.000000 -0.000000 1.037850 91.484800 -1.460140 92.287300 -3.345330 4.069000 15.735700 0.000005 -0.000001 98.587100 84.741800 -93.627900 8.984550 -0.406207 -0.000000 2.594300 1.345840 9.877990 16.377300 -0.000001 -0.000001 4.703300 -5.116430 3.293760 6.456720 -0.000001 -0.000000 -3.353480 -7.480420 6.058600 12.994200 -0.242716 4.980390 -84.289300 -17.026000 -71.150900 5.348090 -0.000007 -0.000001 -0.055305 -61.827800 -22.129500 24.328600 0.000019 0.000005 -8.381890 -16.735900 -27.102700 22.291600 -0.000001 0.000005 12.611600 5.337400 -0.979306 12.994500 -0.242716 -4.980390 88.499000 5.789320 -75.437600 -5.348130 -0.000001 -0.000004 -53.000400 4.662980 4.626230 -24.328900 0.000322 -0.000009 -3.373940 -9.658240 -19.356300 -22.291500 -0.000108 -0.000004 21.175500 5.440090 -4.289710 -2.192480 -6.469440 -0.000000 -178.759000 -18.279900 -4.003270 39.081100 -0.000007 -0.000012 0.007732 -0.015811 26.060600 40.985400 -0.000006 -0.000013 2.684740 10.686800 -68.722100 11.754300 -0.000000 0.000003 0.001749 0.038136 -15.029800 -2.192510 6.469440 -0.000001 172.650000 19.388100 173.934000 -39.081100 -0.002282 -0.040193 0.028028 -0.042851 29.986300 -40.985400 0.000008 0.000006 5.723190 13.219900 -69.531400 -11.754300 -0.000006 -0.000006 -0.454021 -0.558885 -17.363700
0.000000 0.000000 0.000000 0.000000 0.000000 -0.000000 1.375530 92.075000 -1.332720 91.429400 -4.398080 3.096770 15.735700 0.000005 -0.000001 101.423000 85.192200 -96.245000 8.984550 -0.406207 -0.000000 1.607390 1.625870 10.324200 16.377300 -0.000001 -0.000001 4.969750 -4.719350 1.100570 6.456720 -0.000001 -0.000000 -3.109530 -9.173910 8.918540 12.994200 -0.242716 4.980390 -81.023000 -20.509500 -65.733100 5.348090 -0.000007 -0.000001 11.909600 -75.133300 -19.754300 24.328600 0.000019 0.000005 -7.780850 -11.814800 -33.724200 22.291600 -0.000001 0.000005 16.896800 5.382030 -2.344300 12.994500 -0.242716 -4.980390 88.746700 4.586010 -74.695500 -5.348130 -0.000001 -0.000004 -51.989300 1.168690 5.431420 -24.328900 0.000322 -0.000009 -2.736900 -7.287030 -20.648400 -22.291500 -0.000108 -0.000004 21.814700 5.418330 -3.545750 -2.192480 -6.469440 -0.000000 -178.512000 -18.601300 -2.987380 39.081100 -0.000007 -0.000012 -0.001610 0.003904 22.410100 40.985400 -0.000006 -0.000013 2.997200 9.869140 -67.223600 11.754300 -0.000000 0.000003 0.001568 0.032839 -15.244600 -2.192510 6.469440 -0.000001 173.020000 22.659600 175.195000 -39.081100 -0.002282 -0.040193 0.021549 -0.037840 25.733800 -40.985400 0.000008 0.000006 5.551700 17.688700 -67.603700 -11.754300 -0.000006 -0.000006 -0.420130 -0.517784 -17.316900
0.000000 0.000000 0.000000 0.000000 0.000000 -0.000000 1.647910 92.295200 -1.234710 90.743700 -4.827570 2.645040 15.735700 0.000005 -0.000001 101.999000 85.501800 -96.484800 8.984550 -0.406207 -0.000000 0.983947 1.544190 11.007100 16.377300 -0.000001 -0.000001 5.740240 -4.134110 -1.299570 6.456720 -0.000001 -0.000000 -3.127640 -10.131300 9.703380 12.994200 -0.242716 4.980390 -79.331800 -20.030000 -61.188200 5.348090 -0.000007 -0.000001 -12.031300 -86.716500 -54.328600 24.328600 0.000019 0.000005 -10.145600 -13.078400 -38.334900 22.291600 -0.000001 0.000005 21.534600 5.434110 -4.057760 12.994500 -0.242716 -4.980390 89.105400 3.235360 -74.533300 -5.348130 -0.000001 -0.000004 -51.561700 -4.523420 6.985050 -24.328900 0.000322 -0.000009 -1.305880 -2.991750 -23.601500 -22.291500 -0.000108 -0.000004 23.362900 5.390960 -2.650000 -2.192480 -6.469440 -0.000000 -178.150000 -18.329900 -2.640790 39.081100 -0.000007 -0.000012 -0.067119 0.176135 20.860300 40.985400 -0.000006 -0.000013 1.983970 9.116160 -65.748200 11.754300 -0.000000 0.000003 -0.179898 -0.224765 -16.445700 -2.192510 6.469440 -0.000001 173.319000 24.732800 176.164000 -39.081100 -0.002282 -0.040193 0.017262 -0.032452 23.256400 -40.985400 0.000008 0.000006 5.246900 20.310200 -66.734500 -11.754300 -0.000006 -0.000006 -0.264459 -0.328460 -17.118000
